<?xml version="1.0" encoding="UTF-8" standalone="no"?>
<!-- Created with Inkscape (http://www.inkscape.org/) -->

<svg
   xmlns:dc="http://purl.org/dc/elements/1.1/"
   xmlns:cc="http://creativecommons.org/ns#"
   xmlns:rdf="http://www.w3.org/1999/02/22-rdf-syntax-ns#"
   xmlns:svg="http://www.w3.org/2000/svg"
   xmlns="http://www.w3.org/2000/svg"
   version="1.2"
   width="120.672"
   height="144.28801"
   id="svg2">
  <defs
     id="defs4" />
  <metadata
     id="metadata7">
    <rdf:RDF>
      <cc:Work
         rdf:about="">
        <dc:format>image/svg+xml</dc:format>
        <dc:type
           rdf:resource="http://purl.org/dc/dcmitype/StillImage" />
        <dc:title></dc:title>
      </cc:Work>
    </rdf:RDF>
  </metadata>
  <g
     transform="translate(-3.7639993,-2.4382859)"
     id="layer1">
    <g
       id="text2993"
       style="font-size:40px;font-style:normal;font-variant:normal;font-weight:normal;font-stretch:normal;line-height:125%;letter-spacing:0px;word-spacing:0px;fill:#000000;fill-opacity:1;stroke:none;font-family:Bilbo Swash Caps;-inkscape-font-specification:Bilbo Swash Caps">
      <path
         d="m 119.396,54.278286 c 3.35988,4.1e-5 5.03988,0.43204 5.04,1.296 -1.2e-4,0.960039 -1.68012,1.728038 -5.04,2.304 -3.36012,0.576037 -6.24011,0.864036 -8.64,0.864 -6.7201,24.768012 -11.472098,40.127996 -14.256001,46.080004 -7.104088,15.07197 -14.78408,25.82396 -23.04,32.256 -8.256063,6.43195 -16.464055,9.64794 -24.624,9.648 -8.544038,-6e-5 -15.216032,-2.97605 -20.016,-8.928 -1.824025,-2.20804 -2.736024,-4.32004 -2.736,-6.336 0.09598,-0.96004 0.383975,-1.48804 0.864,-1.584 0.767974,-4e-5 1.679973,0.71996 2.736,2.16 1.631971,2.20796 3.023969,3.93596 4.176,5.184 1.247967,1.24795 3.023965,2.49595 5.328,3.744 2.39996,1.24795 4.895958,1.87195 7.488,1.872 6.815948,-5e-5 13.343942,-2.35205 19.584,-7.056 6.239929,-4.70404 11.567924,-10.70403 15.984,-18 4.415915,-7.29602 8.111912,-14.68801 11.088,-22.176004 2.975906,-7.391993 5.231903,-14.495986 6.768001,-21.312 -4.032095,7.776013 -11.664088,14.304006 -22.896001,19.584 -11.232064,5.279996 -22.560053,7.919994 -33.984,7.920004 -12.096029,-10e-6 -21.69602,-3.456007 -28.8,-10.368004 -7.1040055,-7.007989 -10.6560019,-15.647981 -10.6559997,-25.92 -2.2e-6,-6.047964 1.0559967,-11.903959 3.168,-17.568 2.1119925,-5.663947 4.9919897,-10.751942 8.6399997,-15.264 3.743983,-4.607933 8.111978,-8.783929 13.104,-12.528 4.991968,-3.839921 10.319963,-7.007918 15.984,-9.504 5.759951,-2.591913 11.711945,-4.607911 17.856,-6.0480001 6.239933,-1.439908 12.383927,-2.1599073 18.432,-2.16 1.34392,9.27e-5 2.687918,0.048093 4.032,0.144 6.91191,0.3840922 12.527904,1.4400911 16.848001,3.168 4.41589,1.7280877 7.19989,3.5040859 8.352,5.3280001 0.57589,0.960083 0.86389,1.824082 0.864,2.592 -1.1e-4,0.384081 -0.0961,0.816081 -0.288,1.296 -0.19211,0.38408 -0.43211,0.720079 -0.72,1.008 -0.19211,0.192079 -0.52811,0.528079 -1.008,1.008 -0.48011,0.480078 -0.81611,0.864077 -1.008,1.152 -0.28811,0.384077 -0.62411,0.912076 -1.008,1.584 -0.38411,0.576075 -0.76811,1.152074 -1.152,1.728 -0.2881,0.576073 -0.6241,1.152072 -1.008,1.728 -0.3841,0.480071 -0.7681,0.912071 -1.152,1.296 -0.2881,0.28807 -0.5761,0.43207 -0.864,0.432 -0.1921,7e-5 -0.3841,-0.04793 -0.576,-0.144 -0.0961,-0.09593 -0.1921,-0.239929 -0.288,-0.432 l 0,-0.144 c -10e-5,-0.671928 0.3359,-1.679927 1.008,-3.024 0.6719,-1.439925 1.0079,-2.639923 1.008,-3.6 -1e-4,-1.439921 -0.6241,-3.023919 -1.872,-4.752 -2.976098,-4.1279136 -9.168092,-6.6239111 -18.576001,-7.4880001 -1.152081,-0.09591 -2.400079,-0.14391 -3.744,-0.144 -2.400076,9e-5 -4.992073,0.1440898 -7.776,0.432 -2.688067,0.2880893 -5.712064,0.8640887 -9.072,1.728 -3.264058,0.7680871 -6.576055,1.7760861 -9.936,3.0240001 -3.264048,1.152084 -6.624045,2.736082 -10.08,4.752 -3.456038,1.920078 -6.672034,4.128076 -9.648,6.624 -2.976028,2.400071 -5.856026,5.376068 -8.64,8.928 -2.78402,3.456061 -5.136018,7.200057 -7.056,11.232 -3.840012,8.064045 -5.76001,15.840037 -5.76,23.328 -10e-6,9.40802 3.455987,17.088013 10.368,23.04 6.911973,5.856001 14.783965,8.783998 23.616,8.784 14.303942,-2e-6 25.96793,-3.023999 34.992,-9.072 9.119912,-6.143987 16.751904,-15.647977 22.896001,-28.512 -8.160095,0.480035 -21.216082,0.720035 -39.168001,0.72 -1.632061,3.5e-5 -2.97606,-0.479965 -4.032,-1.44 -0.960058,-1.055963 -1.440057,-2.207961 -1.44,-3.456 -5.7e-5,-1.247959 0.959942,-2.351958 2.88,-3.312 2.015938,-0.959956 3.743936,-1.439955 5.184,-1.44 0.09593,4.5e-5 0.191935,4.5e-5 0.288,0 0.575934,4.5e-5 0.911934,0.192044 1.008,0.576 -6.7e-5,0.09604 -0.04807,0.192044 -0.144,0.288 -0.480066,0.576043 -0.816066,1.056043 -1.008,1.44 -0.09607,0.384042 0.09593,0.672042 0.576,0.864 1.055933,4.1e-5 4.12793,0.09604 9.216,0.288 5.08792,0.09604 11.087914,0.192041 18,0.288 7.007901,4.1e-5 12.767891,4.1e-5 17.280001,0 3.07189,4.1e-5 5.42388,4.1e-5 7.056,0"
         id="path3145"
         style="font-size:144px" />
    </g>
  </g>
</svg>
