<?xml version="1.0" encoding="UTF-8" standalone="no"?>
<!-- Created with Inkscape (http://www.inkscape.org/) -->

<svg
   xmlns:dc="http://purl.org/dc/elements/1.1/"
   xmlns:cc="http://creativecommons.org/ns#"
   xmlns:rdf="http://www.w3.org/1999/02/22-rdf-syntax-ns#"
   xmlns:svg="http://www.w3.org/2000/svg"
   xmlns="http://www.w3.org/2000/svg"
   version="1.2"
   width="252.68175"
   height="144.28801"
   id="svg2">
  <defs
     id="defs4" />
  <metadata
     id="metadata7">
    <rdf:RDF>
      <cc:Work
         rdf:about="">
        <dc:format>image/svg+xml</dc:format>
        <dc:type
           rdf:resource="http://purl.org/dc/dcmitype/StillImage" />
        <dc:title></dc:title>
      </cc:Work>
    </rdf:RDF>
  </metadata>
  <g
     transform="translate(-3.7639993,-2.4382859)"
     id="layer1">
    <g
       id="text2993"
       style="font-size:40px;font-style:normal;font-variant:normal;font-weight:normal;font-stretch:normal;line-height:125%;letter-spacing:0px;word-spacing:0px;fill:#000000;fill-opacity:1;stroke:none;font-family:Bilbo Swash Caps;-inkscape-font-specification:Bilbo Swash Caps">
      <path
         d="m 119.396,54.278286 c 3.35988,4.1e-5 5.03988,0.43204 5.04,1.296 -1.2e-4,0.960039 -1.68012,1.728038 -5.04,2.304 -3.36012,0.576037 -6.24011,0.864036 -8.64,0.864 -6.7201,24.768012 -11.472098,40.127996 -14.256001,46.080004 -7.104088,15.07197 -14.78408,25.82396 -23.04,32.256 -8.256063,6.43195 -16.464055,9.64794 -24.624,9.648 -8.544038,-6e-5 -15.216032,-2.97605 -20.016,-8.928 -1.824025,-2.20804 -2.736024,-4.32004 -2.736,-6.336 0.09598,-0.96004 0.383975,-1.48804 0.864,-1.584 0.767974,-4e-5 1.679973,0.71996 2.736,2.16 1.631971,2.20796 3.023969,3.93596 4.176,5.184 1.247967,1.24795 3.023965,2.49595 5.328,3.744 2.39996,1.24795 4.895958,1.87195 7.488,1.872 6.815948,-5e-5 13.343942,-2.35205 19.584,-7.056 6.239929,-4.70404 11.567924,-10.70403 15.984,-18 4.415915,-7.29602 8.111912,-14.68801 11.088,-22.176004 2.975906,-7.391993 5.231903,-14.495986 6.768001,-21.312 -4.032095,7.776013 -11.664088,14.304006 -22.896001,19.584 -11.232064,5.279996 -22.560053,7.919994 -33.984,7.920004 -12.096029,-10e-6 -21.69602,-3.456007 -28.8,-10.368004 -7.1040055,-7.007989 -10.6560019,-15.647981 -10.6559997,-25.92 -2.2e-6,-6.047964 1.0559967,-11.903959 3.168,-17.568 2.1119925,-5.663947 4.9919897,-10.751942 8.6399997,-15.264 3.743983,-4.607933 8.111978,-8.783929 13.104,-12.528 4.991968,-3.839921 10.319963,-7.007918 15.984,-9.504 5.759951,-2.591913 11.711945,-4.607911 17.856,-6.0480001 6.239933,-1.439908 12.383927,-2.1599073 18.432,-2.16 1.34392,9.27e-5 2.687918,0.048093 4.032,0.144 6.91191,0.3840922 12.527904,1.4400911 16.848001,3.168 4.41589,1.7280877 7.19989,3.5040859 8.352,5.3280001 0.57589,0.960083 0.86389,1.824082 0.864,2.592 -1.1e-4,0.384081 -0.0961,0.816081 -0.288,1.296 -0.19211,0.38408 -0.43211,0.720079 -0.72,1.008 -0.19211,0.192079 -0.52811,0.528079 -1.008,1.008 -0.48011,0.480078 -0.81611,0.864077 -1.008,1.152 -0.28811,0.384077 -0.62411,0.912076 -1.008,1.584 -0.38411,0.576075 -0.76811,1.152074 -1.152,1.728 -0.2881,0.576073 -0.6241,1.152072 -1.008,1.728 -0.3841,0.480071 -0.7681,0.912071 -1.152,1.296 -0.2881,0.28807 -0.5761,0.43207 -0.864,0.432 -0.1921,7e-5 -0.3841,-0.04793 -0.576,-0.144 -0.0961,-0.09593 -0.1921,-0.239929 -0.288,-0.432 l 0,-0.144 c -10e-5,-0.671928 0.3359,-1.679927 1.008,-3.024 0.6719,-1.439925 1.0079,-2.639923 1.008,-3.6 -1e-4,-1.439921 -0.6241,-3.023919 -1.872,-4.752 -2.976098,-4.1279136 -9.168092,-6.6239111 -18.576001,-7.4880001 -1.152081,-0.09591 -2.400079,-0.14391 -3.744,-0.144 -2.400076,9e-5 -4.992073,0.1440898 -7.776,0.432 -2.688067,0.2880893 -5.712064,0.8640887 -9.072,1.728 -3.264058,0.7680871 -6.576055,1.7760861 -9.936,3.0240001 -3.264048,1.152084 -6.624045,2.736082 -10.08,4.752 -3.456038,1.920078 -6.672034,4.128076 -9.648,6.624 -2.976028,2.400071 -5.856026,5.376068 -8.64,8.928 -2.78402,3.456061 -5.136018,7.200057 -7.056,11.232 -3.840012,8.064045 -5.76001,15.840037 -5.76,23.328 -10e-6,9.40802 3.455987,17.088013 10.368,23.04 6.911973,5.856001 14.783965,8.783998 23.616,8.784 14.303942,-2e-6 25.96793,-3.023999 34.992,-9.072 9.119912,-6.143987 16.751904,-15.647977 22.896001,-28.512 -8.160095,0.480035 -21.216082,0.720035 -39.168001,0.72 -1.632061,3.5e-5 -2.97606,-0.479965 -4.032,-1.44 -0.960058,-1.055963 -1.440057,-2.207961 -1.44,-3.456 -5.7e-5,-1.247959 0.959942,-2.351958 2.88,-3.312 2.015938,-0.959956 3.743936,-1.439955 5.184,-1.44 0.09593,4.5e-5 0.191935,4.5e-5 0.288,0 0.575934,4.5e-5 0.911934,0.192044 1.008,0.576 -6.7e-5,0.09604 -0.04807,0.192044 -0.144,0.288 -0.480066,0.576043 -0.816066,1.056043 -1.008,1.44 -0.09607,0.384042 0.09593,0.672042 0.576,0.864 1.055933,4.1e-5 4.12793,0.09604 9.216,0.288 5.08792,0.09604 11.087914,0.192041 18,0.288 7.007901,4.1e-5 12.767891,4.1e-5 17.280001,0 3.07189,4.1e-5 5.42388,4.1e-5 7.056,0"
         id="path3175"
         style="font-size:144px" />
      <path
         d="m 161.5385,50.390286 c 0.57596,2.976042 0.86396,5.376039 0.864,7.2 -4e-5,2.112035 -0.72004,3.936034 -2.16,5.472 -1.44004,1.440031 -3.31203,2.49603 -5.616,3.168 -2.30403,0.576028 -4.36803,1.008028 -6.192,1.296 -1.82402,0.192027 -3.55202,0.288027 -5.184,0.288 -0.96002,2.7e-5 -2.06402,2.7e-5 -3.312,0 -1.15202,-0.09597 -1.77602,-0.143973 -1.872,-0.144 -3.16801,8.064019 -4.75201,14.400013 -4.752,19.008 -1e-5,3.840005 1.43999,5.760003 4.32,5.76 2.01598,3e-6 4.36798,-1.247996 7.056,-3.744 2.68798,-2.591991 5.03997,-5.135988 7.056,-7.632 2.01597,-2.591983 3.21597,-3.887982 3.6,-3.888 0.67197,1.8e-5 1.00797,0.384018 1.008,1.152 -3e-5,2.688014 -2.64003,6.43201 -7.92,11.232 -5.28002,4.704001 -9.40802,7.055998 -12.384,7.056 -2.40001,-2e-6 -4.60801,-0.720001 -6.624,-2.16 -1.92,-1.535998 -2.88,-4.031995 -2.88,-7.488 0,-1.055991 0.144,-2.30399 0.432,-3.744 0.672,-3.647985 1.53599,-7.199981 2.592,-10.656 1.15199,-3.455974 1.77599,-5.567972 1.872,-6.336 -1.44001,-0.383971 -2.16001,-1.15197 -2.16,-2.304 -1e-5,-1.055968 0.81599,-1.583967 2.448,-1.584 l 1.008,0 c 3.83999,-7.58396 6.04798,-11.951955 6.624,-13.104 2.68798,-5.087949 7.82398,-7.631947 15.408,-7.632 3.26396,5.3e-5 5.51996,2.928051 6.768,8.784 m -5.184,6.912 c -3e-5,-2.39996 -0.24003,-4.463958 -0.72,-6.192 -0.48003,-1.727954 -1.05603,-2.927953 -1.728,-3.6 -0.57603,-0.671952 -1.20003,-1.007951 -1.872,-1.008 -1.92003,4.9e-5 -4.22402,2.064046 -6.912,6.192 -2.59202,4.128038 -4.51202,7.776035 -5.76,10.944 0.19198,3.1e-5 0.95998,0.04803 2.304,0.144 1.34398,0.09603 2.49598,0.144031 3.456,0.144 3.93597,3.1e-5 6.76797,-0.431968 8.496,-1.296 1.72797,-0.863967 2.63997,-2.639965 2.736,-5.328"
         id="path3177"
         style="font-size:144px" />
      <path
         d="m 212.069,41.606286 c -4.89605,8.160045 -9.45604,17.520036 -13.68,28.08 -4.22403,10.560015 -6.33603,18.480007 -6.336,23.76 -3e-5,1.728 0.38397,2.591999 1.152,2.592 0.28797,-10e-7 1.19997,-0.48 2.736,-1.44 1.63196,-0.959999 2.59196,-1.439998 2.88,-1.44 0.57596,2e-6 0.86396,0.288002 0.864,0.864 -4e-5,1.152 -1.05604,2.447999 -3.168,3.888 -2.11203,1.439996 -4.22403,2.159994 -6.336,2.160004 -2.78403,-1e-5 -4.17603,-2.064007 -4.176,-6.192004 -3e-5,-3.743995 0.76797,-8.111991 2.304,-13.104 1.53597,-4.991981 3.93597,-11.375974 7.2,-19.152 3.26396,-7.775959 4.89596,-11.711955 4.896,-11.808 0.47996,-1.247954 0.71996,-2.207953 0.72,-2.88 -4e-5,-0.479951 -0.14404,-0.719951 -0.432,-0.72 -0.48004,4.9e-5 -1.53604,0.864048 -3.168,2.592 -4.12803,4.608042 -10.03203,12.480034 -17.712,23.616 -7.68001,11.136012 -11.61601,18.000005 -11.808,20.592 -0.096,0.672001 -1.00801,1.584 -2.736,2.736 -1.728,1.247998 -3.168,1.871997 -4.32,1.872 -0.672,-3e-6 -1.056,-0.336002 -1.152,-1.008 0.192,0.287998 1.968,-4.511997 5.328,-14.4 3.45599,-9.887977 5.90399,-17.03997 7.344,-21.456 0.38399,-1.151965 0.57599,-2.015964 0.576,-2.592 -10e-6,-0.383963 -0.096,-0.719962 -0.288,-1.008 -0.096,-0.383962 -0.14401,-0.671961 -0.144,-0.864 -1e-5,-0.383961 0.14399,-1.00796 0.432,-1.872 2.20798,-6.143953 4.07998,-10.175949 5.616,-12.096 1.53598,-2.015945 3.88798,-3.023944 7.056,-3.024 1.24797,5.6e-5 1.96797,0.432055 2.16,1.296 -7.87202,16.128038 -12.57602,27.648027 -14.112,34.56 15.83997,-25.535955 27.98396,-38.303942 36.432,-38.304 1.91995,5.8e-5 2.87995,0.624058 2.88,1.872 -5e-5,0.864055 -0.33605,1.824055 -1.008,2.88"
         id="path3179"
         style="font-size:144px" />
      <path
         d="m 255.00575,83.654286 c -0.0961,0.09601 -0.52805,0.528011 -1.296,1.296 -0.76805,0.672009 -1.39205,1.200009 -1.872,1.584 -0.48004,0.384008 -1.20004,1.008008 -2.16,1.872 -0.86404,0.768006 -1.63204,1.392005 -2.304,1.872 -0.67204,0.480004 -1.48804,1.056004 -2.448,1.728 -0.96004,0.672002 -1.82404,1.200002 -2.592,1.584 -0.67204,0.288001 -1.39203,0.576001 -2.16,0.864 -0.76803,0.288 -1.48803,0.432 -2.16,0.432 -2.01603,0 -3.21603,-1.199999 -3.6,-3.6 -3e-5,-4.031992 1.58397,-11.471985 4.752,-22.32 -12.86402,17.760008 -22.08001,26.639999 -27.648,26.64 -2.304,-10e-7 -3.456,-1.727999 -3.456,-5.184 0,-4.415991 1.296,-10.367985 3.888,-17.856 2.68799,-7.58397 5.95199,-14.399963 9.792,-20.448 3.83998,-6.143951 7.19998,-9.215948 10.08,-9.216 l 0.432,0 1.584,-1.152 c 0.86397,-0.959946 2.20797,-1.439945 4.032,-1.44 1.43997,5.5e-5 3.45597,0.384054 6.048,1.152 2.59196,0.768053 4.03196,1.152052 4.32,1.152 0.38396,5.2e-5 0.86396,-0.383947 1.44,-1.152 0.67196,-0.767946 1.43996,-1.151945 2.304,-1.152 2.39995,5.5e-5 3.59995,1.056054 3.6,3.168 -5e-5,0.864051 -0.19205,1.82405 -0.576,2.88 -0.28805,1.056048 -0.76805,2.304046 -1.44,3.744 -0.57605,1.344044 -0.91205,2.160043 -1.008,2.448 -0.096,0.192042 -0.57605,0.480042 -1.44,0.864 -0.76804,0.384041 -1.20004,0.720041 -1.296,1.008 -2.11204,5.952035 -3.98404,12.336028 -5.616,19.152 -1.63204,6.720015 -2.44804,10.848011 -2.448,12.384 -4e-5,2.400007 0.67196,3.600006 2.016,3.6 1.34396,6e-6 2.97596,-0.815994 4.896,-2.448 2.01596,-1.63199 3.74395,-3.263989 5.184,-4.896 1.43995,-1.631986 2.20795,-2.447985 2.304,-2.448 0.19195,1.5e-5 0.28795,0.192015 0.288,0.576 -5e-5,1.440013 -0.48005,2.544012 -1.44,3.312 m -9.504,-38.304 c -0.57604,5e-5 -1.58404,-0.09595 -3.024,-0.288 -1.34403,-0.19195 -2.49603,-0.28795 -3.456,-0.288 -1.34403,5e-5 -2.78403,0.19205 -4.32,0.576 -2.40003,0.672049 -6.33602,6.384043 -11.808,17.136 -5.47201,10.656022 -8.20801,18.624014 -8.208,23.904 -1e-5,1.632007 0.47999,2.448006 1.44,2.448 2.01599,6e-6 5.56798,-2.927991 10.656,-8.784 5.18397,-5.855979 8.59197,-10.031975 10.224,-12.528 2.39997,-3.839969 4.60796,-7.967964 6.624,-12.384 2.01596,-4.511956 3.02396,-7.487953 3.024,-8.928 -4e-5,-0.575951 -0.24004,-0.86395 -0.72,-0.864 l -0.432,0"
         id="path3181"
         style="font-size:144px" />
    </g>
  </g>
</svg>
